<?xml version="1.0" standalone="no"?><!DOCTYPE svg PUBLIC "-//W3C//DTD SVG 1.1//EN" "http://www.w3.org/Graphics/SVG/1.1/DTD/svg11.dtd"><svg t="1561804206183" class="icon" viewBox="0 0 1024 1024" version="1.1" xmlns="http://www.w3.org/2000/svg" p-id="2219" xmlns:xlink="http://www.w3.org/1999/xlink" width="32" height="32"><defs><style type="text/css"></style></defs><path d="M829.64543375 196.158665a93.55625438 93.55625438 0 0 0 0-109.28866312A105.87137719 105.87137719 0 0 0 743.82643063 32.25790813H174.10688562A95.94190594 95.94190594 0 0 0 88.223405 86.87000188a133.33861687 133.33861687 0 0 0 0 109.28866312v7.80172687l187.30593938 234.11630532a110.96506781 110.96506781 0 0 1 15.60345562 46.810365v312.19805719a36.88089375 36.88089375 0 0 0 39.00863719 39.00863812 36.88089375 36.88089375 0 0 0 39.00863812-39.00863812V484.69363063a191.17456406 191.17456406 0 0 0-31.20691031-93.6852075L158.43895344 156.89211875a23.72756812 23.72756812 0 0 1 0-31.20691031c0-7.80172781 7.80172781-15.60345562 23.4051825-15.60345563h569.719545c7.80172781 0 15.60345562 7.80172781 23.40518343 15.60345563a14.63629875 14.63629875 0 0 1 0 23.4051825l-195.36557531 234.05182781a124.44077906 124.44077906 0 0 0-31.20691031 93.6852075v476.09881406a36.88089375 36.88089375 0 0 0 39.00863812 39.00863813 36.88089375 36.88089375 0 0 0 39.00863719-39.00863813V476.89190375a110.90059031 110.90059031 0 0 1 15.60345563-46.81036594l187.30593937-234.11630437z m0 0" p-id="2220" fill="#1897F2"></path><path d="M907.66271001 750.01684625H712.55504281a36.88089375 36.88089375 0 0 0-39.00863718 39.00863718 36.88089375 36.88089375 0 0 0 39.00863718 39.00863813h195.1076672a36.88089375 36.88089375 0 0 0 39.00863812-39.00863813 36.88089375 36.88089375 0 0 0-39.00863814-39.00863718z m0-156.09902906H712.55504281a36.88089375 36.88089375 0 0 0-39.00863718 39.00863812 36.88089375 36.88089375 0 0 0 39.00863718 39.00863813h195.1076672a36.88089375 36.88089375 0 0 0 39.00863812-39.00863813 36.88089375 36.88089375 0 0 0-39.00863814-39.00863812z m0 0" p-id="2221" fill="#1897F2"></path><path d="M665.74467781 476.82742625a36.88089375 36.88089375 0 0 0 39.00863813 39.00863813h195.10766625a36.88089375 36.88089375 0 0 0 39.00863812-39.00863813c0-23.4051825-7.80172781-39.00863813-31.20691032-39.00863813H712.55504281a43.71546563 43.71546563 0 0 0-46.810365 39.00863813z m0 0" p-id="2222" fill="#1897F2"></path></svg>