<?xml version="1.0" standalone="no"?><!DOCTYPE svg PUBLIC "-//W3C//DTD SVG 1.1//EN" "http://www.w3.org/Graphics/SVG/1.1/DTD/svg11.dtd"><svg t="1560966452040" class="icon" style="" viewBox="0 0 1024 1024" version="1.1" xmlns="http://www.w3.org/2000/svg" p-id="1886" xmlns:xlink="http://www.w3.org/1999/xlink" width="32" height="32"><defs><style type="text/css"></style></defs><path d="M169.2265625 485.6328125c-7.91015625 0-15.8203125-2.63671875-21.09375-10.546875-10.546875-10.546875-7.91015625-29.00390625 2.63671875-36.9140625l311.1328125-255.76171875c29.00390625-21.09375001 71.19140625-21.09375001 97.55859375 0l311.13281251 253.125c10.546875 7.91015625 13.18359375 26.3671875 2.63671874 36.9140625-10.546875 10.546875-26.3671875 13.18359375-36.9140625 2.63671875L527.8203125 227.234375c-7.91015625-5.2734375-23.73046875-5.2734375-31.640625 0L185.046875 480.359375c-5.2734375 5.2734375-10.546875 5.2734375-15.8203125 5.2734375zM762.48828125 854.7734375H591.1015625c-15.8203125 0-26.3671875-10.546875-26.36718749-26.36718751v-123.92578124c0-18.45703124-31.640625-36.9140625-55.37109376-36.9140625-23.73046875 0-52.73437499 15.8203125-52.734375 36.9140625V828.40625001c0 15.8203125-10.546875 26.3671875-26.3671875 26.36718749H264.1484375C224.59765625 854.7734375 195.59374999 825.76953125 195.59374999 788.85546875V538.3671875c0-15.8203125 10.546875-26.3671875 26.36718751-26.3671875s26.3671875 10.546875 26.3671875 26.3671875v250.48828125c0 7.91015625 5.2734375 13.18359375 15.8203125 13.18359375H406.53124999v-97.55859375c0-52.73437499 55.37109375-89.64843749 105.46875001-89.6484375s108.10546875 36.9140625 108.10546875 89.6484375V802.0390625h145.01953125c7.91015625 0 13.18359375 0 13.18359376-15.82031249V538.3671875c0-15.8203125 10.546875-26.3671875 26.36718749-26.3671875s26.3671875 10.546875 26.3671875 26.3671875v250.48828125C828.40625001 828.40625001 802.0390625 854.7734375 762.48828125 854.7734375z" fill="#21272B" p-id="1887"></path></svg>