<?xml version="1.0" standalone="no"?><!DOCTYPE svg PUBLIC "-//W3C//DTD SVG 1.1//EN" "http://www.w3.org/Graphics/SVG/1.1/DTD/svg11.dtd"><svg t="1561803469158" class="icon" viewBox="0 0 1024 1024" version="1.1" xmlns="http://www.w3.org/2000/svg" p-id="6851" xmlns:xlink="http://www.w3.org/1999/xlink" width="32" height="32"><defs><style type="text/css"></style></defs><path d="M499.772 44.815c-178.055 0-322.44 145.167-322.44 324.367 0 89.51 36.142 170.586 94.45 229.316l227.99 229.376 228.051-229.376a324.307 324.307 0 0 0 94.389-229.256c0-179.2-144.324-324.367-322.44-324.367z m0 468.45a143.721 143.721 0 0 1-143.36-144.083v-0.12a143.661 143.661 0 0 1 143.3-144.083h0.06a143.721 143.721 0 0 1 143.36 144.083v0.12a143.661 143.661 0 0 1-143.18 144.023h-0.18zM356.412 933.286a143.36 60.235 0 1 0 286.72 0 143.36 60.235 0 1 0-286.72 0z" fill="#6C7880" p-id="6852"></path></svg>