<?xml version="1.0" standalone="no"?><!DOCTYPE svg PUBLIC "-//W3C//DTD SVG 1.1//EN" "http://www.w3.org/Graphics/SVG/1.1/DTD/svg11.dtd"><svg t="1560246924271" class="icon" style="" viewBox="0 0 1024 700" version="1.1" xmlns="http://www.w3.org/2000/svg" p-id="3304" xmlns:xlink="http://www.w3.org/1999/xlink" width="48" height="48"><defs><style type="text/css"></style></defs><path d="M12.8 783.104c0 68.864 198.144 124.672 442.88 124.672 244.48 0 442.88-55.808 442.88-124.672 0-68.864-198.144-124.672-442.88-124.672S12.8 714.24 12.8 783.104z m0 0" fill="#DEDEDE" p-id="3305"></path><path d="M726.272 698.88l-190.976 167.68-6.912-324.096 203.008-120.32-5.12 276.736z m0 0" fill="#EEEEEE" p-id="3306"></path><path d="M529.408 862.976l-355.84-103.936v-120.32L473.6 727.04c19.712-138.496 36.096-192.512 48.128-163.328 12.032 29.184 14.592 129.024 7.68 299.264z m0 0M524.288 537.088l-95.488-20.736-6.144-67.84v-115.2L721.92 416.768h10.24l-207.872 120.32z m0 0" fill="#DEDEDE" p-id="3307"></path><path d="M428.8 520.704l-248.576-68.864 248.576-120.32v189.184z m0 0" fill="#EEEEEE" p-id="3308"></path><path d="M807.168 580.096l-72.96-148.736v129.024l72.96 19.712z m0 0" fill="#DEDEDE" p-id="3309"></path><path d="M428.032 525.056c-2.56 0-4.352-1.792-4.352-4.352v-180.48c0-2.56 1.792-4.352 4.352-4.352s4.352 1.792 4.352 4.352v180.48c-0.256 2.56-1.792 4.352-4.352 4.352z m0 0" fill="#AAAAAA" p-id="3310"></path><path d="M524.288 547.328h-0.768L174.336 457.984c-1.792-0.768-3.328-1.792-3.328-3.328 0-1.792 0.768-3.328 2.56-4.352l253.696-121.344c0.768-0.768 1.792-0.768 2.56 0l303.616 84.224c1.792 0.768 2.56 1.792 3.328 3.328 0 1.792-0.768 3.328-1.792 4.352l-208.128 125.44c-0.768 0.256-1.792 1.024-2.56 1.024zM188.16 452.096l335.36 86.016 197.632-119.552-292.352-81.664-240.64 115.2z m0 0" fill="#AAAAAA" p-id="3311"></path><path d="M535.552 872.448h-1.792c-1.792-0.768-2.56-1.792-2.56-3.328l-11.264-325.888c0-1.792 0.768-3.328 1.792-3.328l208.128-125.44c1.792-0.768 2.56-0.768 4.352 0s2.56 2.56 2.56 3.328v282.88c0 0.768-0.768 2.56-1.792 3.328l-196.864 168.448h-2.56z m-6.912-327.68l10.24 313.856 188.416-160.768V424.448l-198.656 120.32z m0 0" fill="#AAAAAA" p-id="3312"></path><path d="M535.552 872.448h-0.768l-360.192-104.96c-1.792-0.768-3.328-2.56-3.328-4.352v-125.44c0-2.56 1.792-4.352 4.352-4.352s4.352 1.792 4.352 4.352v122.88l351.744 103.168v-0.768c0-2.56 1.792-4.352 4.352-4.352s4.352 1.792 4.352 4.352v6.144c0 1.792-0.768 2.56-1.792 3.328h-3.072z m0 0" fill="#AAAAAA" p-id="3313"></path><path d="M467.456 726.272l-359.424-110.08 67.072-162.56 349.184 89.344-56.832 183.296z m0 0" fill="#FFFFFF" p-id="3314"></path><path d="M467.456 730.624h-0.768l-360.192-110.08c-0.768 0-1.792-0.768-2.56-2.56-0.768-0.768-0.768-2.56 0-3.328l67.072-162.56c0.768-1.792 2.56-3.328 5.12-2.56l349.184 89.344c0.768 0 1.792 0.768 2.56 1.792 0.768 0.768 0.768 2.56 0 3.328L471.04 728.064c0 1.536-1.792 2.56-3.584 2.56zM113.152 613.632l351.744 107.52 54.272-175.36-341.504-86.784-64.512 154.624z m692.224-24.832h-0.768l-72.96-20.736c-1.792-0.768-3.328-2.56-3.328-4.352v-146.944c0-1.792 1.792-3.328 3.328-4.352 1.792-0.768 4.352 0.768 5.12 2.56l72.96 152.064v17.152c0 1.792-0.768 2.56-1.792 3.328-0.768 1.28-1.792 1.28-2.56 1.28z m-68.864-28.416l64.512 18.944v-8.704l-64.512-134.144v123.904z m13.824-209.92c-32.768 0-62.72-12.032-67.84-14.592l1.792-4.352c6.912 3.328 68.864 28.416 114.432 1.792-12.032-6.912-21.504-15.36-25.856-28.416v-0.768c-4.352-18.944 1.792-30.208 6.912-36.864 7.68-9.472 21.504-14.592 36.096-13.824 11.264 0 19.712 3.328 24.064 9.472 3.328 4.352 4.352 9.472 3.328 16.384-2.56 17.152-18.176 40.448-36.864 53.248 13.824 6.144 30.208 8.704 42.24 8.704 42.24-1.792 81.664-42.24 94.464-97.28l4.352 0.768c-13.824 57.6-55.04 98.816-98.816 100.608-12.8 0.768-30.976-2.56-46.336-10.24-15.872 12.032-34.816 15.36-51.968 15.36z m26.624-45.568c4.352 12.032 13.824 20.736 25.856 26.624l0.768-0.768c18.176-12.032 33.536-34.304 36.096-51.712 0.768-6.144 0-10.24-2.56-13.824-3.328-4.352-12.032-7.68-20.736-7.68-10.24 0-24.064 2.56-32.768 12.8-5.12 5.12-10.24 15.36-6.144 32.768l-0.512 1.792z m0 0" fill="#AAAAAA" p-id="3315"></path><path d="M981.76 126.976c-6.144-8.704-48.128 0.768-67.072 29.184-5.12 8.704-11.264 35.328-6.912 29.184 11.264-16.384 31.744-6.912 47.36-19.712 12.8-11.008 31.744-31.744 26.624-38.656z m0 0" fill="#F0F1F4" p-id="3316"></path><path d="M907.776 188.16h-1.792c-4.352-2.56 4.352-27.392 6.912-32.768 14.592-22.272 43.776-32.768 58.368-33.536 6.144 0 9.472 1.792 11.264 4.352 7.68 11.264-25.856 41.216-26.624 41.216-7.68 6.912-16.384 7.68-24.832 8.704-8.704 1.792-17.152 2.56-22.272 10.24 0.512 0.768-0.256 1.792-1.024 1.792z m64.512-62.976c-14.592 0-41.216 10.24-55.04 30.976-3.328 5.12-6.144 17.152-7.68 23.296 6.912-6.912 14.592-7.68 22.272-8.704 7.68-0.768 15.36-2.56 22.272-7.68 14.592-12.8 29.184-30.976 25.856-35.328-0.768-1.536-3.584-2.56-7.68-2.56z m0 0" fill="#AAAAAA" p-id="3317"></path><path d="M929.28 166.656l-3.328-2.56c15.36-19.712 33.536-35.328 71.424-45.568 3.328-0.768 5.12-1.792 6.144-1.792 1.792-0.768 1.792-0.768 6.912-0.768l0.768 4.352c-4.352 0.768-4.352 0.768-6.144 0.768-0.768 0-2.56 0.768-6.144 1.792-37.12 9.216-55.04 23.808-69.632 43.776z m0 0" fill="#AAAAAA" p-id="3318"></path><path d="M141.568 787.456c-0.768 8.704-36.864 18.944-62.72 6.912-8.704-3.328-23.296-19.712-18.176-17.152 15.36 6.144 26.624-7.68 43.776-6.144 14.08 2.56 37.12 9.472 37.12 16.384z m0 0" fill="#F0F1F4" p-id="3319"></path><path d="M105.472 802.048c-9.472 0-18.944-1.792-27.392-5.12-6.144-2.56-22.272-15.36-19.712-19.712 0 0 0.768-2.56 4.352-0.768 7.68 3.328 13.824 0.768 21.504-1.792 6.912-2.56 13.824-5.12 22.272-3.328 7.68 0.768 38.656 7.68 38.656 18.176 0 2.56-1.792 5.12-6.144 6.912-7.68 2.048-19.712 5.632-33.536 5.632z m-41.216-21.504c3.328 4.352 10.24 9.472 14.592 12.032 19.712 8.704 45.568 5.12 55.808-1.792 2.56-1.792 3.328-2.56 3.328-3.328 0-4.352-18.176-11.264-35.328-13.824-7.68-0.768-13.824 1.792-19.712 3.328-4.864 2.56-11.008 5.12-18.688 3.584z m0 0" fill="#AAAAAA" p-id="3320"></path><path d="M154.624 788.992c-16.384-4.352-30.208-2.56-42.24-1.792-12.032 0.768-21.504 1.792-31.744-1.792l1.792-4.352c8.704 3.328 18.944 2.56 30.208 1.792 12.8-0.768 26.624-2.56 43.008 1.792l-1.024 4.352z m0 0" fill="#AAAAAA" p-id="3321"></path></svg>