<?xml version="1.0" standalone="no"?><!DOCTYPE svg PUBLIC "-//W3C//DTD SVG 1.1//EN" "http://www.w3.org/Graphics/SVG/1.1/DTD/svg11.dtd"><svg t="1560957916488" class="icon" style="" viewBox="0 0 1024 1024" version="1.1" xmlns="http://www.w3.org/2000/svg" p-id="5275" xmlns:xlink="http://www.w3.org/1999/xlink" width="32" height="32"><defs><style type="text/css"></style></defs><path d="M778.15873 436.825397c-12.190476-16.253968-26.412698-30.47619-38.603174-44.698413-34.539683-38.603175-67.047619-75.174603-69.079366-105.650794 4.063492-8.126984 18.285714-26.412698 28.444445-40.63492C735.492063 201.142857 776.126984 150.349206 741.587302 115.809524c-26.412698-24.380952-89.396825-65.015873-223.492064-65.015873-101.587302 0-174.730159 22.349206-219.428571 67.047619-34.539683 34.539683 6.095238 85.333333 40.63492 130.031746 10.15873 12.190476 26.412698 32.507937 28.444445 40.634921-4.063492 28.444444-36.571429 62.984127-69.079365 95.492063-16.253968 18.285714-34.539683 34.539683-50.793651 54.857143-81.269841 101.587302-121.904762 197.079365-119.873016 292.571428 8.126984 253.968254 241.777778 292.571429 381.968254 292.571429 251.936508 0 379.936508-99.555556 384-294.603175 2.031746-97.52381-36.571429-193.015873-115.809524-292.571428zM509.968254 973.206349c-215.365079 0-327.111111-83.301587-329.142857-245.84127-2.031746-83.301587 34.539683-168.634921 107.68254-260.063492 14.222222-16.253968 30.47619-34.539683 46.730158-50.79365 40.634921-42.666667 81.269841-81.269841 83.301588-130.031747 2.031746-20.31746-12.190476-38.603175-40.634921-73.142857-14.222222-16.253968-40.634921-52.825397-42.666667-65.015873 44.698413-42.666667 123.936508-50.793651 182.857143-50.79365 115.809524 0 166.603175 34.539683 182.857143 50.79365-2.031746 14.222222-30.47619 48.761905-42.666667 67.047619-26.412698 32.507937-40.634921 52.825397-40.63492 71.111111 2.031746 48.761905 40.634921 91.428571 83.301587 138.158731 12.190476 14.222222 26.412698 28.444444 36.571429 42.666666 73.142857 89.396825 107.68254 174.730159 105.650793 260.063492 0 60.952381-4.063492 245.84127-333.206349 245.84127zM532.31746 615.619048c-4.063492-4.063492-10.15873-6.095238-14.222222-8.126985-24.380952-16.253968-38.603175-32.507937-40.634921-46.730158 0-4.063492 0-10.15873 6.095239-20.317461s16.253968-14.222222 30.47619-16.253968c20.31746-2.031746 38.603175 8.126984 44.698413 14.222222 10.15873 10.15873 24.380952 10.15873 34.539682 2.031746 10.15873-10.15873 6.095238-24.380952-2.031746-34.539682-14.222222-14.222222-28.444444-26.412698-67.047619-28.444445v-14.222222c0-14.222222-10.15873-24.380952-24.380952-24.380952s-24.380952 10.15873-24.380953 24.380952v18.285715c-14.222222 6.095238-26.412698 16.253968-36.571428 30.47619-10.15873 16.253968-14.222222 36.571429-10.15873 56.888889 4.063492 28.444444 26.412698 54.857143 60.952381 79.238095 4.063492 4.063492 10.15873 6.095238 16.253968 10.15873 48.761905 30.47619 60.952381 46.730159 48.761905 69.079365-6.095238 12.190476-18.285714 18.285714-32.507937 20.317461-20.31746 2.031746-40.634921-4.063492-56.888889-20.317461-10.15873-10.15873-24.380952-10.15873-34.539682 0s-12.190476 24.380952-4.063492 34.539683c14.222222 16.253968 34.539683 26.412698 48.761904 32.507936v42.666667c0 14.222222 10.15873 24.380952 24.380953 24.380952s24.380952-10.15873 24.380952-24.380952v-38.603175c38.603175-4.063492 56.888889-22.349206 69.079365-46.730158 38.603175-71.111111-26.412698-113.777778-60.952381-136.126984z" p-id="5276"></path></svg>