<?xml version="1.0" standalone="no"?><!DOCTYPE svg PUBLIC "-//W3C//DTD SVG 1.1//EN" "http://www.w3.org/Graphics/SVG/1.1/DTD/svg11.dtd"><svg t="1560957910438" class="icon" style="" viewBox="0 0 1024 1024" version="1.1" xmlns="http://www.w3.org/2000/svg" p-id="5147" xmlns:xlink="http://www.w3.org/1999/xlink" width="32" height="32"><defs><style type="text/css"></style></defs><path d="M469.333333 426.666667h-99.555555c-15.644444 0-28.444444-12.8-28.444445-28.444445s12.8-28.444444 28.444445-28.444444h99.555555c15.644444 0 28.444444 12.8 28.444445 28.444444s-12.8 28.444444-28.444445 28.444445zM476.444444 540.444444h-99.555555c-15.644444 0-28.444444-12.8-28.444445-28.444444s12.8-28.444444 28.444445-28.444444h99.555555c15.644444 0 28.444444 12.8 28.444445 28.444444s-12.8 28.444444-28.444445 28.444444z" fill="#404042" p-id="5148"></path><path d="M568.888889 227.555556h-113.777778c-78.222222 0-142.222222 61.155556-142.222222 137.955555v275.911111c0 29.866667 25.6 41.244444 56.888889 41.244445h284.444444c31.288889 0 56.888889-24.177778 56.888889-55.466667V365.511111c0-76.8-64-137.955556-142.222222-137.955555z m85.333333 399.644444H369.777778V365.511111c0-45.511111 38.4-82.488889 85.333333-82.488889h113.777778c46.933333 0 85.333333 36.977778 85.333333 82.488889v261.688889z" fill="#404042" p-id="5149"></path><path d="M768 625.777778H256c-55.466667 0-99.555556 44.088889-99.555556 99.555555s44.088889 99.555556 99.555556 99.555556h512c55.466667 0 99.555556-44.088889 99.555556-99.555556s-44.088889-99.555556-99.555556-99.555555z m-7.111111 142.222222h-497.777778c-24.177778 0-42.666667-18.488889-42.666667-42.666667s18.488889-42.666667 42.666667-42.666666h497.777778c24.177778 0 42.666667 18.488889 42.666667 42.666666s-18.488889 42.666667-42.666667 42.666667zM540.444444 85.333333v156.444445c0 8.533333-5.688889 14.222222-14.222222 14.222222h-28.444444c-8.533333 0-14.222222-5.688889-14.222222-14.222222V85.333333c0-15.644444 12.8-28.444444 28.444444-28.444444s28.444444 12.8 28.444444 28.444444z" fill="#404042" p-id="5150"></path><path d="M398.222222 782.222222v199.111111h227.555556V782.222222H398.222222z m170.666667 156.444445h-113.777778v-128h113.777778v128z" fill="#404042" p-id="5151"></path><path d="M725.333333 981.333333H298.666667c-15.644444 0-28.444444-12.8-28.444445-28.444444s12.8-28.444444 28.444445-28.444445h426.666666c15.644444 0 28.444444 12.8 28.444445 28.444445s-12.8 28.444444-28.444445 28.444444z" fill="#404042" p-id="5152"></path></svg>