<?xml version="1.0" standalone="no"?><!DOCTYPE svg PUBLIC "-//W3C//DTD SVG 1.1//EN" "http://www.w3.org/Graphics/SVG/1.1/DTD/svg11.dtd"><svg t="1560957839102" class="icon" style="" viewBox="0 0 1024 1024" version="1.1" xmlns="http://www.w3.org/2000/svg" p-id="3977" xmlns:xlink="http://www.w3.org/1999/xlink" width="32" height="32"><defs><style type="text/css"></style></defs><path d="M75.105712 206.926467l-11.373995 17.766679A53.715147 53.715147 0 0 0 55.346508 253.750799c0 11.623061 3.735984 23.827276 11.069582 36.197534 10.654473 17.932723 29.721828 36.94473 59.6097 56.288825l252.303452 172.132003-3.210179-136.100513L75.133386 206.926467z m730.869162 548.968253l0.359762 0.193718c17.794353 10.931212 34.011291 18.098767 51.279839 19.537812 17.268548 1.439046 33.817574-3.929702 48.069661-12.536302 26.705367-15.967872 50.754034-39.822822 59.47133-73.695743 8.717296-33.900595 1.05161-73.695743-25.653757-118.693594-0.166044-0.553479-0.525805-1.079284-0.691849-1.60509-26.705367-45.191569-62.681509-68.852801-100.235066-73.142264-37.747275-4.483181-73.889461 7.887077-107.374947 23.661232-23.688906 11.457018-40.957454 20.063618-54.656062 22.969383-13.698608 2.490656-24.380755 1.937177-43.807871-7.55499l-54.130257-31.742027 2.490656 107.762382 224.878561 144.845483z m32.765964-182.67578a99.626239 99.626239 0 0 1 33.291768 136.432601l-168.783454-102.725723a98.325564 98.325564 0 0 1 135.491686-33.706878zM434.950154 653.168998c-0.913241 21.502663-5.534791 31.354591-14.252087 42.11976-9.077057 10.737495-24.90656 21.862425-46.298527 37.276818-29.721828 22.056142-58.032284 48.069661-72.284372 83.575345-14.418131 35.644055-10.682147 79.230534 16.742743 124.947909 26.345606 45.163895 57.340436 71.177413 91.15801 79.784013 33.65153 8.412882 66.057732-1.273002 92.56938-17.2132 14.611848-8.6066 27.065128-20.617097 34.205009-36.584969 6.918489-15.940198 8.523578-33.706878 7.638012-54.517692l-0.166044-0.332088-19.59316-289.746313-1.245328-17.185526a15.829502 15.829502 0 0 1 14.611848-17.047157c1.245328 0 2.296938 0.193718 3.542267 0.359762h0.553479l-6.946163-284.349892L516.117866 113.526867c-2.6567-35.865446-9.962624-61.657573-20.644771-79.784013-7.112207-12.370258-16.02322-21.502663-26.179562-27.065129-9.962624-5.534791-20.644771-7.195228-29.362067-6.448031l-21.032206 1.439046 13.726282 556.301851 2.324612 95.198407z m30.607395 94.285166l7.139881 198.477608a98.685325 98.685325 0 0 1-102.033874-95.558168c-1.937177-54.877454 40.597693-100.954589 94.921667-102.91944z" p-id="3978" fill="#515151"></path></svg>