<?xml version="1.0" standalone="no"?><!DOCTYPE svg PUBLIC "-//W3C//DTD SVG 1.1//EN" "http://www.w3.org/Graphics/SVG/1.1/DTD/svg11.dtd"><svg t="1560957901371" class="icon" style="" viewBox="0 0 1024 1024" version="1.1" xmlns="http://www.w3.org/2000/svg" p-id="5012" xmlns:xlink="http://www.w3.org/1999/xlink" width="32" height="32"><defs><style type="text/css"></style></defs><path d="M329.335 481.604H198.926c-73.051 0-132.481-59.43-132.481-132.481V218.719c0-73.051 59.429-132.481 132.481-132.481h130.409c73.045 0 132.475 59.43 132.475 132.481v130.404c-0.001 73.052-59.43 132.481-132.475 132.481z" fill="" p-id="5013"></path><path d="M198.926 142.546c-42.001 0-76.173 34.172-76.173 76.173v130.404c0 42.001 34.171 76.173 76.173 76.173h130.409c42 0 76.167-34.167 76.167-76.173V218.719c0-42.001-34.167-76.173-76.167-76.173H198.926z" fill="#FFCA28" p-id="5014"></path><path d="M638.339 476.574l-92.21-92.21c-51.652-51.653-51.657-135.698 0-187.355l92.21-92.21c51.652-51.653 135.702-51.653 187.354 0l92.21 92.21c51.652 51.654 51.657 135.703 0.005 187.355l-92.215 92.215c-51.653 51.653-135.702 51.653-187.354 0v-0.005z m147.54-331.961c-29.698-29.698-78.024-29.698-107.726 0l-92.21 92.21c-29.698 29.697-29.698 78.023 0 107.726l92.21 92.21c29.698 29.698 78.024 29.698 107.726 0l92.21-92.21c29.698-29.704 29.698-78.024 0-107.726l-92.21-92.21z m0 0M329.335 957.667H198.926c-73.051 0-132.481-59.43-132.481-132.48V694.782c0-73.05 59.429-132.485 132.481-132.485h130.409c73.045 0 132.475 59.434 132.475 132.485v130.405c-0.001 73.051-59.43 132.48-132.475 132.48z" fill="" p-id="5015"></path><path d="M198.926 618.606c-42.001 0-76.173 34.172-76.173 76.177v130.405c0 42 34.171 76.172 76.173 76.172h130.409c42 0 76.167-34.172 76.167-76.172V694.782c0-42-34.167-76.177-76.167-76.177H198.926z" fill="#FFCA28" p-id="5016"></path><path d="M803.015 957.667H672.611c-73.051 0-132.481-59.43-132.481-132.48V694.782c0-73.05 59.43-132.485 132.481-132.485h130.404c73.045 0 132.48 59.434 132.48 132.485v130.405c0 73.051-59.43 132.48-132.48 132.48z" fill="" p-id="5017"></path><path d="M672.611 618.606c-42.001 0-76.173 34.172-76.173 76.177v130.405c0 42 34.167 76.172 76.173 76.172h130.404c42 0 76.172-34.172 76.172-76.172V694.782c0-42-34.171-76.177-76.172-76.177H672.611z" fill="#FFCA28" p-id="5018"></path></svg>