<?xml version="1.0" standalone="no"?><!DOCTYPE svg PUBLIC "-//W3C//DTD SVG 1.1//EN" "http://www.w3.org/Graphics/SVG/1.1/DTD/svg11.dtd"><svg t="1560327789118" class="icon" style="" viewBox="0 0 1024 1024" version="1.1" xmlns="http://www.w3.org/2000/svg" p-id="56302" xmlns:xlink="http://www.w3.org/1999/xlink" width="48" height="48"><defs><style type="text/css"></style></defs><path d="M357.89 114.43s76.5-111 201-88.5 184.49 166.49 72 295.49-273 210-273 210-210-121.49-268.49-198-93-169.49-45-247.49 157.49-78 214.49-45 99 73.5 99 73.5z" fill="#EA5050" p-id="56303"></path><path d="M585 28.84C634.35 78.2 643.66 154 608.17 217.35c-59.3 105.93-264.38 236.39-307.59 263.09C268 459.92 143.38 379.3 59 297.64c-9.72-9.45-82.6-118.33-1.6-223.33 23.72-30.75 92-64.55 159.5-49.88 81.23 17.68 138 94.5 138 94.5s46-61.55 99.51-86.62c74.47-34.88 125.4-8.66 130.59-3.47z" fill="#FF5F5F" p-id="56304"></path><path d="M782.23 578s48.69-70.65 127.93-56.33 117.43 106 45.83 188.08-173.76 133.64-173.76 133.64-133.66-77.33-170.89-126-59.19-107.88-28.64-157.53 100.24-49.66 136.52-28.66a364 364 0 0 1 63.01 46.8z" fill="#EA5050" p-id="56305"></path><path d="M926.79 523.51c32.44 30.35 37.34 79.63 14.75 120-37.75 67.43-173.66 155.9-201.17 172.9-22.16-14-104-66.83-152.85-126.16-19.64-23.85-48.32-88.25 17.85-146.84 79-70 178 33.9 178 33.9s94.03-100 143.42-53.8z" fill="#FF5F5F" p-id="56306"></path><path d="M1017.74 609.21a120.45 120.45 0 0 0-34.84-72.61c-24.9-24.91-58.9-37.93-93.29-35.69-27.07 1.76-66.42 13.62-106 58.23-39.56-44.61-78.91-56.47-106-58.23-34.37-2.23-68.38 10.78-93.29 35.69a120.45 120.45 0 0 0-34.84 72.61 130.51 130.51 0 0 0 15.93 77.49c39.17 70 173.6 157.17 204.3 176.48v103.17A25.71 25.71 0 0 1 744.07 992h-349a25.71 25.71 0 0 1-25.68-25.68V539.48c18.4-11.33 69.16-43.3 124.61-84.34 94-69.54 156.2-130.84 185-182.2 19.27-34.42 27.52-74.56 23.25-113A175.23 175.23 0 0 0 651.54 54.3C615.29 18 565.84-0.89 515.86 2.36 474.92 5 414.72 23.59 354.41 94.91 294.11 23.59 233.9 5 193 2.36 143-0.88 93.54 18 57.29 54.3A175.23 175.23 0 0 0 6.61 159.92c-4.28 38.47 4 78.61 23.25 113C57.32 322 119.15 382.6 213.62 453c56 41.73 107.41 74.76 125.82 86.34v427a55.71 55.71 0 0 0 55.65 55.66h349a55.71 55.71 0 0 0 55.65-55.65V861.9c34.39-21.32 162.06-103.7 202.09-175.2a130.5 130.5 0 0 0 15.91-77.49zM56 258.31c-34.42-61.49-25.39-135 22.47-182.82C106.42 47.55 143.69 32 181.93 32c3 0 6.06 0.1 9.09 0.29 53.64 3.48 106 36.46 151.3 95.39a15 15 0 0 0 11.88 5.85h0.42a15 15 0 0 0 11.88-5.85c45.34-58.93 97.66-91.91 151.3-95.39 41.36-2.68 82.39 13.07 112.54 43.22 47.86 47.86 56.89 121.33 22.47 182.82-57.5 102.67-256.4 229.23-298.3 255.13C312.38 486.87 110.91 356.37 56 258.31z m919.66 413.74C939.49 736.66 816 816.41 783.72 836.53c-32.49-20.65-157.59-102.8-192.12-164.48-21.53-38.47-15.93-84.38 14-114.26a91.49 91.49 0 0 1 64.5-27.16q2.82 0 5.66 0.18c33.81 2.19 67 23.23 95.9 60.83a15 15 0 0 0 11.88 5.85h0.28a15 15 0 0 0 11.88-5.85c28.93-37.6 62.1-58.63 95.9-60.83 25.77-1.67 51.34 8.16 70.16 27 29.82 29.86 35.43 75.78 13.9 114.24z" fill="#192B3A" p-id="56307"></path></svg>