<?xml version="1.0" standalone="no"?><!DOCTYPE svg PUBLIC "-//W3C//DTD SVG 1.1//EN" "http://www.w3.org/Graphics/SVG/1.1/DTD/svg11.dtd"><svg t="1560323470949" class="icon" style="" viewBox="0 0 1024 1024" version="1.1" xmlns="http://www.w3.org/2000/svg" p-id="56171" xmlns:xlink="http://www.w3.org/1999/xlink" width="48" height="48"><defs><style type="text/css"></style></defs><path d="M391.111111 661.333333h-85.333333c-15.644444 0-28.444444-12.8-28.444445-28.444444s12.8-28.444444 28.444445-28.444445h85.333333c15.644444 0 28.444444 12.8 28.444445 28.444445s-12.8 28.444444-28.444445 28.444444zM391.111111 775.111111h-85.333333c-15.644444 0-28.444444-12.8-28.444445-28.444444s12.8-28.444444 28.444445-28.444445h85.333333c15.644444 0 28.444444 12.8 28.444445 28.444445s-12.8 28.444444-28.444445 28.444444zM391.111111 547.555556h-85.333333c-15.644444 0-28.444444-12.8-28.444445-28.444445s12.8-28.444444 28.444445-28.444444h85.333333c15.644444 0 28.444444 12.8 28.444445 28.444444s-12.8 28.444444-28.444445 28.444445zM583.111111 184.888889H440.888889c-62.577778 0-113.777778 51.2-113.777778 113.777778v42.666666h56.888889v-42.666666c0-31.288889 25.6-56.888889 56.888889-56.888889h142.222222c31.288889 0 56.888889 25.6 56.888889 56.888889v42.666666h56.888889v-42.666666c0-62.577778-51.2-113.777778-113.777778-113.777778zM512 71.111111c-46.933333 0-85.333333 38.4-85.333333 85.333333v28.444445h56.888889v-28.444445c0-15.644444 12.8-28.444444 28.444444-28.444444s28.444444 12.8 28.444444 28.444444v28.444445h56.888889v-28.444445c0-46.933333-38.4-85.333333-85.333333-85.333333z" fill="#00CB95" p-id="56172"></path><path d="M264.533333 406.755556l-31.288889 455.111111c-2.844444 49.777778 35.555556 91.022222 85.333334 91.022222h385.422222c49.777778 0 88.177778-41.244444 85.333333-91.022222l-31.288889-455.111111c-2.844444-44.088889-39.822222-79.644444-85.333333-79.644445H349.866667c-44.088889 0-82.488889 34.133333-85.333334 79.644445zM692.622222 896H331.377778c-25.6 0-45.511111-21.333333-42.666667-46.933333l35.555556-426.666667c1.422222-22.755556 19.911111-39.822222 42.666666-39.822222h291.555556c22.755556 0 41.244444 17.066667 42.666667 39.822222l35.555555 426.666667c1.422222 25.6-18.488889 46.933333-44.088889 46.933333z" fill="#00CB95" p-id="56173"></path></svg>