<?xml version="1.0" standalone="no"?><!DOCTYPE svg PUBLIC "-//W3C//DTD SVG 1.1//EN" "http://www.w3.org/Graphics/SVG/1.1/DTD/svg11.dtd"><svg t="1560322992637" class="icon" style="" viewBox="0 0 1024 1024" version="1.1" xmlns="http://www.w3.org/2000/svg" p-id="55911" xmlns:xlink="http://www.w3.org/1999/xlink" width="48" height="48"><defs><style type="text/css"></style></defs><path d="M700.416 572.416c8.192-16.384 2.048-35.84-14.336-44.032-20.48-10.24-43.008-18.432-64.512-25.6 71.68-47.104 119.808-128 119.808-220.16C741.376 138.24 624.64 20.48 479.232 20.48S218.112 138.24 218.112 282.624c0 92.16 48.128 172.032 119.808 219.136C153.6 562.176 20.48 734.208 20.48 937.984v32.768C20.48 988.16 34.816 1003.52 53.248 1003.52s32.768-14.336 32.768-32.768v-32.768c0-217.088 176.128-393.216 393.216-393.216 62.464 0 121.856 14.336 177.152 41.984 16.384 8.192 35.84 2.048 44.032-14.336zM283.648 282.624c0-108.544 88.064-196.608 196.608-196.608S675.84 174.08 675.84 282.624s-88.064 196.608-196.608 196.608-195.584-88.064-195.584-196.608zM994.304 946.176l-79.872-79.872c-1.024-1.024-2.048-1.024-3.072-2.048 17.408-25.6 27.648-57.344 27.648-90.112 0-90.112-73.728-163.84-163.84-163.84s-163.84 73.728-163.84 163.84 73.728 163.84 163.84 163.84c33.792 0 65.536-10.24 91.136-27.648 1.024 1.024 1.024 2.048 2.048 3.072l79.872 79.872c6.144 6.144 14.336 9.216 23.552 9.216 8.192 0 16.384-3.072 23.552-9.216 11.264-13.312 11.264-33.792-1.024-47.104z m-220.16-73.728c-54.272 0-98.304-44.032-98.304-98.304s44.032-98.304 98.304-98.304 98.304 44.032 98.304 98.304-44.032 98.304-98.304 98.304z" fill="#269EF9" p-id="55912"></path></svg>