<?xml version="1.0" standalone="no"?><!DOCTYPE svg PUBLIC "-//W3C//DTD SVG 1.1//EN" "http://www.w3.org/Graphics/SVG/1.1/DTD/svg11.dtd"><svg t="1560345693868" class="icon" style="" viewBox="0 0 1024 1024" version="1.1" xmlns="http://www.w3.org/2000/svg" p-id="2705" xmlns:xlink="http://www.w3.org/1999/xlink" width="128" height="128"><defs><style type="text/css"></style></defs><path d="M512 440.888889c-140.8 0-256 184.888889-256 256 0 140.8 115.2 142.222222 256 142.222222s256-1.422222 256-142.222222c0-71.111111-115.2-256-256-256z m0 341.333333c-109.511111 0-199.111111 0-199.111111-85.333333 0-42.666667 89.6-199.111111 199.111111-199.111111s199.111111 156.444444 199.111111 199.111111c0 99.555556-89.6 85.333333-199.111111 85.333333zM184.888889 355.555556c-51.2 0-92.444444 41.244444-92.444445 92.444444S133.688889 540.444444 184.888889 540.444444s92.444444-41.244444 92.444444-92.444444S236.088889 355.555556 184.888889 355.555556z m0 128c-19.911111 0-35.555556-15.644444-35.555556-35.555556S164.977778 412.444444 184.888889 412.444444s35.555556 15.644444 35.555555 35.555556S204.8 483.555556 184.888889 483.555556zM832 369.777778c-51.2 0-92.444444 41.244444-92.444444 92.444444s41.244444 92.444444 92.444444 92.444445 92.444444-41.244444 92.444444-92.444445-41.244444-92.444444-92.444444-92.444444z m0 128c-19.911111 0-35.555556-15.644444-35.555556-35.555556s15.644444-35.555556 35.555556-35.555555 35.555556 15.644444 35.555556 35.555555-15.644444 35.555556-35.555556 35.555556zM661.333333 199.111111c-51.2 0-92.444444 41.244444-92.444444 92.444445s41.244444 92.444444 92.444444 92.444444 92.444444-41.244444 92.444445-92.444444-41.244444-92.444444-92.444445-92.444445z m0 128c-19.911111 0-35.555556-15.644444-35.555555-35.555555s15.644444-35.555556 35.555555-35.555556 35.555556 15.644444 35.555556 35.555556-15.644444 35.555556-35.555556 35.555555zM391.111111 184.888889c-58.311111 0-106.666667 48.355556-106.666667 106.666667s48.355556 106.666667 106.666667 106.666666 106.666667-48.355556 106.666667-106.666666-48.355556-106.666667-106.666667-106.666667z m0 156.444444c-27.022222 0-49.777778-22.755556-49.777778-49.777777s22.755556-49.777778 49.777778-49.777778 49.777778 22.755556 49.777778 49.777778-22.755556 49.777778-49.777778 49.777777z" fill="#CD78DF" p-id="2706"></path></svg>