<?xml version="1.0" standalone="no"?><!DOCTYPE svg PUBLIC "-//W3C//DTD SVG 1.1//EN" "http://www.w3.org/Graphics/SVG/1.1/DTD/svg11.dtd"><svg t="1560408611073" class="icon" style="" viewBox="0 0 1024 1024" version="1.1" xmlns="http://www.w3.org/2000/svg" p-id="2462" xmlns:xlink="http://www.w3.org/1999/xlink" width="48" height="48"><defs><style type="text/css"></style></defs><path d="M396.75392 504.9344h28.544c0-32.19456 25.57952-58.25024 57.10336-58.25024v-29.07136c-47.3344 0-85.64736 39.06048-85.64736 87.3216z" p-id="2463" fill="#919CA3"></path><path d="M482.40128 301.1072c-110.37696 0-199.85408 91.2384-199.85408 203.8272 0 112.58368 89.47712 203.8272 199.85408 203.8272a195.7888 195.7888 0 0 0 84.94592-19.29728c66.90304-32.1024 113.5104-100.92544 114.85696-180.97152 0.02048-1.18784 0.04608-2.37056 0.04608-3.5584 0-112.5888-89.47712-203.8272-199.84896-203.8272z m84.94592 320.82944c-23.73632 17.95072-53.12 28.5696-84.94592 28.5696-78.85312 0-142.75072-65.18272-142.75072-145.57696s63.89248-145.57184 142.75072-145.57184 142.75072 65.1776 142.75072 145.57184c0 1.18784-0.01536 2.37568-0.04608 3.5584-1.09056 46.49472-23.55712 87.58272-57.75872 113.44896z" p-id="2464" fill="#919CA3"></path><path d="M939.19744 361.94816V301.1072c0-48.2048-38.36928-87.3216-85.65248-87.3216h-142.75072v-29.12768c0-48.26112-38.36928-87.37792-85.64736-87.37792H339.65056c-47.27808 0-85.65248 39.12192-85.65248 87.37792v29.12768h-142.7456c-47.27808 0-85.65248 39.06048-85.65248 87.3216v465.90464c0 48.2048 38.36928 87.31648 85.65248 87.31648h456.09472v-0.02048c21.62688-0.41472 39.19872-18.11968 39.19872-39.72096 0-21.60128-17.56672-39.30624-39.19872-39.72096v-0.02048H145.45408c-22.32832 0-40.42752-18.22208-40.42752-40.76544V326.25664c0-22.48192 18.0992-40.76544 40.42752-40.76544h175.23712V217.53344c0-22.48192 18.0992-40.76544 40.42752-40.76544h242.6112c22.32832 0 40.42752 18.22208 40.42752 40.76544V285.4912h175.1808c22.32832 0 40.42752 18.2272 40.42752 40.76544h-0.05632v182.23616h0.13312c1.24416 20.76672 18.70848 37.37088 39.88992 37.37088 21.98528 0 39.96672-17.88416 39.96672-39.74144V368.26112a38.33856 38.33856 0 0 0-0.50176-6.31296z" p-id="2465" fill="#919CA3"></path><path d="M852.12672 593.89952v295.26016c0 20.6592-16.9984 37.5552-37.77024 37.5552h-4.39808c-20.77696 0-37.77024-16.90112-37.77024-37.5552v-295.26016c0-20.6592 16.9984-37.5552 37.77024-37.5552h4.39808c20.77184 0 37.77024 16.90112 37.77024 37.5552z" p-id="2466" fill="#919CA3"></path><path d="M663.68512 701.78816h296.94464c20.77696 0 37.77024 16.90112 37.77024 37.5552v4.37248c0 20.6592-16.9984 37.5552-37.77024 37.5552h-296.94464c-20.77696 0-37.77024-16.90112-37.77024-37.5552v-4.37248c0-20.65408 16.99328-37.5552 37.77024-37.5552z" p-id="2467" fill="#919CA3"></path></svg>