<?xml version="1.0" standalone="no"?><!DOCTYPE svg PUBLIC "-//W3C//DTD SVG 1.1//EN" "http://www.w3.org/Graphics/SVG/1.1/DTD/svg11.dtd"><svg t="1560439672616" class="icon" style="" viewBox="0 0 1024 1024" version="1.1" xmlns="http://www.w3.org/2000/svg" p-id="5798" xmlns:xlink="http://www.w3.org/1999/xlink" width="48" height="48"><defs><style type="text/css"></style></defs><path d="M512 31.744c-265.216 0-480.256 214.016-480.256 480.256s214.016 480.256 480.256 480.256 480.256-214.016 480.256-480.256-215.04-480.256-480.256-480.256m201.728 681.984a33.9968 33.9968 0 0 1-48.128 0l-153.6-153.6-153.6 153.6c-13.312 13.312-34.816 13.312-48.128 0s-13.312-34.816 0-48.128l153.6-153.6-153.6-153.6c-13.312-13.312-13.312-34.816 0-48.128s34.816-13.312 48.128 0l153.6 153.6 153.6-153.6c13.312-13.312 34.816-13.312 48.128 0s13.312 34.816 0 48.128l-153.6 153.6 153.6 153.6c15.36 13.312 15.36 34.816 0 48.128z" p-id="5799" fill="#999999"></path></svg>