<?xml version="1.0" standalone="no"?><!DOCTYPE svg PUBLIC "-//W3C//DTD SVG 1.1//EN" "http://www.w3.org/Graphics/SVG/1.1/DTD/svg11.dtd"><svg t="1560489397544" class="icon" style="" viewBox="0 0 1024 1024" version="1.1" xmlns="http://www.w3.org/2000/svg" p-id="8719" xmlns:xlink="http://www.w3.org/1999/xlink" width="48" height="48"><defs><style type="text/css"></style></defs><path d="M512.464162 935.831273c-7.943758 0-15.358707 0-23.832566-0.530101-103.797657-5.823354-202.298182-49.777778-276.439919-123.919515-74.141737-74.140444-118.626263-172.11604-123.923394-275.913697-6.354747-117.571232 34.424242-229.838869 115.448242-314.576162C285.803313 135.099475 394.369293 87.968323 511.934061 87.968323c12.18198 0 21.712162 9.535354 21.712161 21.712162 0 12.18198-9.530182 21.712162-21.712161 21.712161-105.384081 0-203.358384 42.368-275.913697 119.156364-72.550141 76.792242-109.62101 176.883071-103.797657 282.272323 10.590384 193.82303 165.231192 348.465131 359.060687 358.525414 104.857859 5.828525 204.948687-31.242343 281.73705-103.267555 76.262141-71.495111 119.156364-172.11604 119.156364-276.445091 0-12.176808 9.530182-21.712162 21.712162-21.712162s21.712162 9.535354 21.712161 21.712162c0 115.980929-48.722747 228.253737-132.924767 308.217535-79.438869 75.201939-182.176323 115.979636-290.212202 115.979637z m0 0" fill="#1897F2" p-id="8720"></path><path d="M512.464162 946.422949c-7.943758 0-15.888808 0-24.357495-0.530101-106.980848-5.823354-207.601778-50.839273-283.328647-126.571313-76.263434-76.25697-121.278061-176.879192-126.571313-282.793373-6.353455-120.746667 35.480566-235.666101 118.626263-322.51992C279.97996 125.569293 392.247596 77.376646 511.934061 77.376646c18.005333 0 32.30901 14.298505 32.30901 32.303839s-14.303677 32.307717-32.30901 32.307717c-102.207354 0-197.53503 41.307798-267.96994 115.449535-70.963717 74.671838-106.974384 172.110869-101.15103 274.853495 10.065455 189.061172 160.464162 338.934949 349.000404 348.465132 101.67596 5.823354 199.121455-30.187313 273.792-100.622223 73.611636-68.843313 115.980929-166.817616 115.980929-268.50004 0-18.00404 14.297212-32.302545 32.302546-32.302545 18.005333 0 32.302545 14.298505 32.302545 32.302545 0 118.626263-49.777778 233.545697-136.100202 315.632485-80.495192 76.792242-186.414545 119.156364-297.627151 119.156363z m-0.530101-847.864242c-113.857939 0-220.833616 46.076121-299.742384 129.74804-78.908768 83.145697-118.626263 192.241778-112.802909 307.161213 5.298424 100.620929 48.192646 196.474828 120.747959 269.024969a414.479515 414.479515 0 0 0 269.555071 120.74796c7.945051 0.530101 15.358707 0.530101 22.772364 0.530101 105.919354 0 206.540283-40.247596 282.798545-113.33301 82.615596-78.378667 129.74804-187.999677 129.74804-300.803879 0-6.353455-4.768323-11.120485-11.121777-11.120485s-11.121778 4.76703-11.121778 11.120485c0 107.505778-44.484525 210.778505-122.863192 283.858747-78.908768 74.671838-181.646222 112.272808-289.152 106.444283-199.651556-10.590384-357.999192-168.934141-369.12097-368.590868-5.823354-108.559515 31.777616-211.832242 106.974384-290.212202 74.671838-78.903596 175.294061-122.333091 283.328647-122.333091 6.358626 0 11.121778-4.761859 11.121777-11.120485 0-6.353455-4.763152-11.121778-11.121777-11.121778z m0 0" fill="#1897F2" p-id="8721"></path></svg>